<svg xmlns="http://www.w3.org/2000/svg" xmlns:xlink="http://www.w3.org/1999/xlink" width="100%" height="100%" viewBox="0 0 940 490" preserveAspectRatio="xMinYMin meet"><defs id="svgEditorDefs"><style type="text/css">.svg_text_unselect{-moz-user-select: none;-webkit-user-select: none;-ms-user-select: none;}
</style></defs><rect id="svgEditorBackground" x="0" y="0" width="940" height="490" style="fill: none; stroke: none;"/><g id="e8_group" style="fill:black;" transform="matrix(1 0 0 1.01415 261.198 337.398)"><ellipse id="e6_ellipse" cx="385.6" cy="35.1" style="fill:white;stroke:black;stroke-width:1px" rx="1115.8" ry="248" transform="matrix(0.562669 0 0 0.7183 676.535 91.8561)"/><ellipse id="e2_ellipse" cx="442.2" cy="110.3" style="fill:white;stroke:black;stroke-width:1px" rx="1115.8" ry="248" transform="matrix(-0.562669 0 0 0.7183 -17.4127 51.8641)"/></g><path style="stroke:#1F7F9C;fill:none;stroke-width:17px" id="e16_polyline" transform="matrix(0 -0.518198 0.75 0 -171.945 13.6846)" d="M-916.2,-320.3l40.8,-73.5l44.9,73.4"/><path d="M-965.2,-377.4l4.1,0l5.7,0l7.1,0l3.5,0l6.6,0l6.6,0l6.6,0l6.6,0l5.6,0l5.1,0l5.1,0l4.6,0l4.1,0l4.1,0l4.1,0l4.6,0l4.6,0l4.6,0l4.6,0l4.6,0l4.1,0.5l4.1,0.5l3.6,1l2.6,1.5l2.6,1.5l2,2l1.5,2.6l1.5,2.6l1.5,2.6l1.5,2.6l1.5,2.6l1.5,2.6l1.5,3.1l1.5,3.1l2,2.6l1.5,3.1l1.5,3.1l1,3.6l1.5,3.1l1.5,3.1l1.5,2.6l1.5,2.6l1.5,2.6l1.5,2.6l1.5,2.6l2,2l1.9,2.2l1.7,2.4l1,3.1" style="stroke:black;fill:none;stroke-width:15px" id="e18_freepath" transform="matrix(0 0.518198 0.75 0 -199.493 864.884)"/><path d="M-965.2,-377.4l4.1,0l5.7,0l7.1,0l3.5,0l6.6,0l6.6,0l6.6,0l6.6,0l5.6,0l5.1,0l5.1,0l4.6,0l4.1,0l4.1,0l4.1,0l4.6,0l4.6,0l4.6,0l4.6,0l4.6,0l4.1,0.5l4.1,0.5l3.6,1l2.6,1.5l2.6,1.5l2,2l1.5,2.6l1.5,2.6l1.5,2.6l1.5,2.6l1.5,2.6l1.5,2.6l1.5,3.1l1.5,3.1l2,2.6l1.5,3.1l1.5,3.1l1,3.6l1.5,3.1l1.5,3.1l1.5,2.6l1.5,2.6l1.5,2.6l1.5,2.6l1.5,2.6l2,2l1.9,2.2l1.7,2.4l1,3.1" style="stroke:black;fill:none;stroke-width:15px" id="e1_freepath" transform="matrix(0 -0.518198 0.75 0 -195.403 66.0256)"/><path style="stroke:#1F7F9C;fill:none;stroke-width:17px" id="e4_polyline" transform="matrix(0 -0.518198 -0.75 0 1317.9 4.85101)" d="M-916.2,-320.3l40.8,-73.5l44.9,73.4"/><path d="M-965.2,-377.4l4.1,0l5.7,0l7.1,0l3.5,0l6.6,0l6.6,0l6.6,0l6.6,0l5.6,0l5.1,0l5.1,0l4.6,0l4.1,0l4.1,0l4.1,0l4.6,0l4.6,0l4.6,0l4.6,0l4.6,0l4.1,0.5l4.1,0.5l3.6,1l2.6,1.5l2.6,1.5l2,2l1.5,2.6l1.5,2.6l1.5,2.6l1.5,2.6l1.5,2.6l1.5,2.6l1.5,3.1l1.5,3.1l2,2.6l1.5,3.1l1.5,3.1l1,3.6l1.5,3.1l1.5,3.1l1.5,2.6l1.5,2.6l1.5,2.6l1.5,2.6l1.5,2.6l2,2l1.9,2.2l1.7,2.4l1,3.1" style="stroke:black;fill:none;stroke-width:15px" id="e5_freepath" transform="matrix(0 0.518198 -0.75 0 1345.45 856.05)"/><path d="M-965.2,-377.4l4.1,0l5.7,0l7.1,0l3.5,0l6.6,0l6.6,0l6.6,0l6.6,0l5.6,0l5.1,0l5.1,0l4.6,0l4.1,0l4.1,0l4.1,0l4.6,0l4.6,0l4.6,0l4.6,0l4.6,0l4.1,0.5l4.1,0.5l3.6,1l2.6,1.5l2.6,1.5l2,2l1.5,2.6l1.5,2.6l1.5,2.6l1.5,2.6l1.5,2.6l1.5,2.6l1.5,3.1l1.5,3.1l2,2.6l1.5,3.1l1.5,3.1l1,3.6l1.5,3.1l1.5,3.1l1.5,2.6l1.5,2.6l1.5,2.6l1.5,2.6l1.5,2.6l2,2l1.9,2.2l1.7,2.4l1,3.1" style="stroke:black;fill:none;stroke-width:15px" id="e6_freepath" transform="matrix(0 -0.518198 -0.75 0 1341.36 57.192)"/></svg>